<mxfile host="app.diagrams.net" modified="2024-04-17T11:23:06.118Z" agent="Mozilla/5.0 (Macintosh; Intel Mac OS X 10.15; rv:125.0) Gecko/20100101 Firefox/125.0" version="23.1.5" etag="8O34AXGB1xZZMjBjY5kT" type="github">
  <diagram name="Page-1" id="lY3oP8doF7AQHOfGDI5o">
    <mxGraphModel>
      <root>
        <mxCell id="0" />
        <mxCell id="1" parent="0" />
      </root>
    </mxGraphModel>
  </diagram>
</mxfile>
